<?xml version="1.0" encoding="UTF-8" standalone="no"?>
<!DOCTYPE svg PUBLIC "-//W3C//DTD SVG 1.1//EN" "http://www.w3.org/Graphics/SVG/1.1/DTD/svg11.dtd">
<!-- Created with Vectornator (http://vectornator.io/) -->
<svg height="100%" stroke-miterlimit="10" style="fill-rule:nonzero;clip-rule:evenodd;stroke-linecap:round;stroke-linejoin:round;" version="1.1" viewBox="0 0 81.1456 31.4545" width="100%" xml:space="preserve" xmlns="http://www.w3.org/2000/svg" xmlns:vectornator="http://vectornator.io" xmlns:xlink="http://www.w3.org/1999/xlink">
<defs/>
<g id="Untitled" vectornator:layerName="Untitled"/>
<clipPath id="ArtboardFrame">
<rect height="31.4545" width="81.1456" x="0" y="0"/>
</clipPath>
<g clip-path="url(#ArtboardFrame)" id="Layer-1" vectornator:layerName="Layer 1">
<g opacity="1" vectornator:layerName="Group 1">
<path d="M69.0166 0.795704L51.6734 2.02179C50.2742 2.13759 49.7875 3.01268 49.7875 4.06147L49.7875 22.2592C49.7875 23.0761 50.0906 23.7751 50.8218 24.7093L54.8986 29.7832C55.5684 30.6 56.1774 30.7752 57.4562 30.717L77.5966 29.5501C79.2994 29.434 79.7875 28.675 79.7875 27.3922L79.7875 6.91953C79.7875 6.25654 79.5138 6.06544 78.7083 5.49965L73.0339 1.67049C71.6946 0.738405 71.147 0.620506 69.0166 0.795404L69.0166 0.795704ZM57.9117 6.58444C56.2671 6.69033 55.8941 6.71433 54.9601 5.98744L52.5855 4.17966C52.3441 3.94567 52.4654 3.65377 53.0735 3.59557L69.746 2.42948C71.1461 2.31249 71.8751 2.77958 72.4227 3.18758L75.2822 5.17055C75.4044 5.22965 75.7084 5.57855 75.3427 5.57855L58.1248 6.57064L57.9117 6.58474L57.9117 6.58444ZM55.9944 27.2173L55.9944 9.8376C55.9944 9.07861 56.2379 8.72851 56.967 8.66971L76.7428 7.56152C77.4135 7.50362 77.7166 7.91162 77.7166 8.66941L77.7166 25.9333C77.7166 26.6923 77.5944 27.3343 76.4995 27.3922L57.5754 28.4422C56.4805 28.5001 55.9947 28.1512 55.9947 27.2173L55.9944 27.2173ZM74.675 10.7694C74.7963 11.2944 74.675 11.8194 74.1265 11.8794L73.2144 12.0525L73.2144 24.8842C72.4224 25.2922 71.6933 25.5253 71.084 25.5253C70.1102 25.5253 69.867 25.2334 69.1376 24.3592L63.173 15.3773L63.173 24.0673L65.0598 24.4762C65.0598 24.4762 65.0598 25.5262 63.5375 25.5262L59.3406 25.7593C59.2184 25.5253 59.3406 24.9424 59.7659 24.8263L60.862 24.5353L60.862 13.0455L59.3409 12.9276C59.2187 12.4026 59.5227 11.6445 60.3753 11.5857L64.8784 11.2956L71.0843 20.3936L71.0843 12.3447L69.5024 12.1707C69.3802 11.5278 69.867 11.0607 70.475 11.0037L74.675 10.7697L74.675 10.7694Z" fill="#000000" fill-rule="evenodd" opacity="1" stroke="none" vectornator:layerName="path"/>
<path d="M43.4827 17.6741L34.746 19.8931C33.6384 20.1739 32.7067 20.8698 32.1223 21.8521C31.5376 22.8349 31.3711 23.9858 31.6526 25.0931C31.9339 26.2002 32.6298 27.1323 33.6116 27.7168L33.6119 27.717C34.594 28.3013 35.7447 28.4678 36.8521 28.1865L45.5892 25.9675C47.3872 25.5108 48.6738 23.9574 48.8041 22.1312L46.8859 22.6185C46.6171 23.4104 45.9617 24.0201 45.1476 24.227L36.1914 26.5011L36.1895 26.4953C35.5825 26.6065 34.9648 26.4967 34.4337 26.1807C33.8661 25.843 33.4651 25.308 33.3036 24.6738C33.1399 24.0298 33.2424 23.3608 33.5902 22.7889C33.9071 22.2685 34.3932 21.8852 34.9716 21.6956L34.9702 21.6907L35.0933 21.6589C35.1098 21.6543 35.1269 21.6495 35.1433 21.6456C35.1483 21.6443 35.1537 21.6429 35.1585 21.642L35.1882 21.6342L43.9249 19.4152C44.5675 19.2523 45.2347 19.3493 45.8038 19.6878C45.9509 19.7754 46.088 19.8775 46.2137 19.9925L48.1342 19.5045C47.7783 18.951 47.2941 18.4838 46.7229 18.144C45.741 17.56 44.5901 17.3931 43.4827 17.6741M57.6053 18.1356C58.1896 17.1535 58.3562 16.0024 58.0749 14.8952C57.7939 13.7872 57.098 12.8556 56.1157 12.2712C55.1337 11.687 53.983 11.5201 52.8754 11.8018L44.1385 14.0201C42.3418 14.4763 41.0553 16.0282 40.9234 17.8526L42.7603 17.3861C43.0197 16.6495 43.6176 16.0679 44.367 15.8219L44.3658 15.8167L44.4868 15.7853C44.5025 15.781 44.5194 15.7766 44.5356 15.7723C44.5405 15.7712 44.5452 15.7699 44.5503 15.7688L44.5807 15.761L53.317 13.5422C53.9596 13.3789 54.6272 13.4759 55.1971 13.8149C55.7671 14.154 56.1706 14.6944 56.3338 15.337C56.6709 16.6635 55.8653 18.0176 54.5391 18.3537L45.5838 20.6287L45.5822 20.6225C44.9745 20.7335 44.3576 20.6243 43.8263 20.3082C43.6831 20.223 43.5499 20.1246 43.4274 20.0141L41.5907 20.4806C41.9475 21.0357 42.4315 21.5036 43.0039 21.8441C43.9865 22.4287 45.1373 22.5955 46.2446 22.3143L54.9813 20.0955C56.0891 19.8137 57.0208 19.118 57.6053 18.1356" fill="#000000" fill-rule="nonzero" opacity="1" stroke="none" vectornator:layerName="path 1"/>
<path d="M37.142 23.8608C36.9633 23.8608 36.8027 23.8608 36.6597 23.8382C36.3561 23.8158 36.0524 23.7932 35.7488 23.7932C35.5523 23.7932 35.5523 23.7932 35.5344 23.5451L35.2485 19.4396L34.9628 16.0336L34.7664 13.9358L34.5877 12.1087L34.2661 9.26651C34.1589 8.25158 34.034 7.25905 33.8732 6.24389C33.8553 6.08613 33.8553 6.06349 33.9983 6.04086C34.552 5.9055 35.1236 5.83782 35.6952 5.83782L35.8916 5.83782C35.9809 5.86046 36.0345 5.92814 36.0524 6.06349L36.1239 7.61984L36.624 16.0336L36.8741 19.8907L37.0348 22.1014L37.142 23.8608L37.142 23.8608ZM15.2427 5.83782L15.5643 5.83782C15.725 5.83782 15.7607 5.9055 15.7607 6.10853L15.9037 8.83804L16.2253 14.4996L16.4217 17.4546L16.5646 19.733L16.8505 23.6578C16.8505 23.8382 16.8326 23.8608 16.6897 23.8608L15.4035 23.7932C15.3142 23.8158 15.2606 23.7481 15.2606 23.6352L15.207 22.8457C15.1534 22.1691 15.0998 21.4923 15.0642 20.7932L14.7783 17.2291L14.4747 14.0035L14.2603 11.7253L14.0282 9.64994C13.921 8.72509 13.7959 7.77784 13.6709 6.85299L13.5815 6.22148C13.5638 6.10853 13.5815 6.06349 13.6709 6.04086C14.171 5.92814 14.6534 5.81542 15.2427 5.83782L15.2427 5.83782L15.2427 5.83782ZM33.2124 14.9283C33.6589 14.9283 33.7125 14.951 33.784 15.4921C33.8732 16.1689 33.9447 16.8457 33.9983 17.5222L34.1948 19.7103L34.5699 24.357C34.5877 24.4699 34.5699 24.515 34.4805 24.515L33.0873 24.718C32.9444 24.7404 32.9086 24.718 32.8908 24.5376L32.0869 19.3495L31.5868 15.8982L31.5153 15.4245C31.4976 15.3344 31.5333 15.2667 31.6048 15.2441C32.1584 15.0863 32.6944 14.9734 33.2124 14.9283L33.2124 14.9283L33.2124 14.9283ZM12.9027 14.9283C13.3851 14.9057 13.4386 14.9734 13.4922 15.5374C13.6174 16.4623 13.7066 17.3645 13.7781 18.2893L14.0102 20.996L14.1531 22.8233L14.2782 24.2893C14.2782 24.4923 14.2603 24.5376 14.1174 24.56L12.7957 24.718C12.6527 24.7404 12.617 24.718 12.5991 24.5376L11.5095 17.4546L11.2238 15.4471C11.2059 15.3344 11.2415 15.2667 11.331 15.2441C11.8846 15.0863 12.4026 14.9734 12.9027 14.9283L12.9027 14.9283L12.9027 14.9283ZM19.7262 21.9208L19.7262 24.718L19.7262 24.8081C19.7441 24.9434 19.6905 25.0111 19.5833 24.9887L19.1546 24.9887C18.851 24.9887 18.5473 25.0111 18.2437 25.0338C18.0829 25.0564 18.065 25.0564 18.0471 24.8081L17.7614 20.7479L17.6185 18.7404L17.4041 15.6728C17.3862 15.4245 17.4221 15.3794 17.5827 15.3568C18.0829 15.2891 18.583 15.2891 19.0833 15.3118L19.4582 15.3794C19.6013 15.4471 19.619 15.4697 19.619 15.6501L19.6726 16.8681L19.6905 18.2217C19.7085 19.4623 19.7262 20.6802 19.7262 21.9208L19.7262 21.9208L19.7262 21.9208ZM40 22.0562L40 24.6954L40 24.8307C40 24.9434 39.9643 25.0111 39.8749 24.9887L39.232 24.9887C38.9819 24.9887 38.7317 25.0111 38.4996 25.0338C38.3567 25.0564 38.3388 25.0338 38.3209 24.8307L37.9459 19.5523L37.7493 16.9358L37.678 15.6051C37.66 15.4245 37.6957 15.3794 37.8387 15.3794C38.4281 15.2891 39.0355 15.2667 39.6249 15.3568C39.8571 15.3794 39.8928 15.4697 39.9107 15.7629L39.9643 18.7628L40 22.0562L40 22.0562ZM32.6944 10.1237C32.8729 10.1237 33.0337 10.1463 33.1588 10.1687C33.248 10.1914 33.2837 10.2364 33.3016 10.3494L33.5337 13.4847C33.5873 13.7554 33.5517 13.8004 33.3373 13.8004L32.73 13.8455C32.6049 13.8681 32.5513 13.8908 32.5513 13.6427L32.3013 11.0936L32.23 10.3718C32.212 10.2364 32.2477 10.1687 32.3549 10.1463L32.6944 10.1237L32.6944 10.1237ZM12.4562 10.1237C12.5991 10.1237 12.7421 10.1463 12.8671 10.1687C12.9386 10.1914 12.9742 10.2364 12.9922 10.3494L13.0635 11.1388L13.2422 13.5974C13.2601 13.7778 13.2601 13.8004 13.1171 13.8004L12.4206 13.8455C12.2777 13.8681 12.2598 13.8455 12.2419 13.6651L12.0811 11.8607L11.9382 10.3494C11.9203 10.2364 11.9562 10.1687 12.0454 10.1687C12.1705 10.1463 12.3134 10.1237 12.4562 10.1237L12.4562 10.1237L12.4562 10.1237ZM19.5833 12.3794L19.5833 13.9358C19.6013 14.1839 19.5654 14.1839 19.4046 14.1839C19.1725 14.1839 18.9582 14.1615 18.7438 14.1388C18.6009 14.1162 18.583 14.1162 18.6009 13.9358L18.5473 12.0184C18.5473 11.59 18.5473 11.1612 18.5294 10.7328C18.5117 10.5297 18.5294 10.5071 18.6902 10.5071C18.9402 10.5071 19.1903 10.5297 19.4405 10.5748C19.5833 10.5748 19.5833 10.6201 19.5833 10.8005L19.5833 12.3794L19.5833 12.3794ZM39.8749 12.4019L39.8749 13.9584C39.8749 14.1615 39.8571 14.1839 39.6964 14.1839L39.0176 14.1388C38.9104 14.1162 38.8568 14.0485 38.8747 13.9358L38.8211 10.7101C38.8211 10.5297 38.8389 10.5071 38.9819 10.5071C39.214 10.5071 39.4284 10.5297 39.6428 10.5524C39.9107 10.5748 39.8749 10.6425 39.8749 10.8905L39.8749 12.4019L39.8749 12.4019ZM11.9026 13.62C11.9203 13.8908 11.9026 13.9358 11.6882 13.9584L11.2595 14.0938C11.1166 14.1615 11.0987 14.1162 11.0809 13.9584L10.6343 10.7778C10.5807 10.5748 10.6163 10.5297 10.7771 10.5071L11.4023 10.3718C11.5453 10.3494 11.581 10.3494 11.581 10.5297C11.6346 10.9132 11.6882 11.2966 11.7239 11.68L11.9026 13.4847L11.9026 13.62L11.9026 13.62ZM30.9081 10.5297C31.176 10.4621 31.4617 10.417 31.7476 10.3718C31.8369 10.3494 31.8726 10.417 31.8905 10.5297L32.0333 11.7703C32.1049 12.3794 32.1584 12.9883 32.1764 13.5974L32.1764 13.7778C32.1941 13.8681 32.1584 13.9358 32.0869 13.9584L31.5153 14.1162C31.4261 14.1388 31.3904 14.0938 31.3725 13.9808L30.9081 10.6201L30.9081 10.5297L30.9081 10.5297ZM18.2258 12.9659C18.2258 13.3267 18.2079 13.6651 18.1901 13.9808C18.1901 14.0938 18.1543 14.1388 18.065 14.1615L17.5113 14.2291C17.4221 14.2515 17.3862 14.1839 17.3862 14.0712C17.3506 13.7328 17.3326 13.417 17.3149 13.0786C17.279 12.4695 17.2434 11.838 17.2254 11.2065L17.1898 10.7554C17.1719 10.6651 17.2077 10.6201 17.279 10.6201L18.0114 10.5524C18.1365 10.5524 18.1722 10.5748 18.1722 10.7554L18.2258 12.9659L18.2258 12.9659ZM38.4817 12.6049C38.4996 13.0336 38.4996 13.4847 38.4817 13.9132C38.4996 14.1162 38.4639 14.1615 38.3031 14.1615L37.8029 14.2291C37.7136 14.2515 37.66 14.1839 37.66 14.0712C37.6421 13.5073 37.6064 12.9209 37.5708 12.3568L37.4992 10.7778C37.4813 10.6651 37.5172 10.6201 37.5885 10.6201L38.3031 10.5524C38.4281 10.5524 38.446 10.5748 38.446 10.7554C38.4817 11.3643 38.4996 11.996 38.4817 12.6049L38.4817 12.6049L38.4817 12.6049ZM11.2059 20.2968C11.4918 20.7255 11.5453 21.199 11.4202 21.7178C11.313 22.2142 11.1166 22.6426 10.8307 23.0037C10.3663 23.6128 9.83056 24.1089 9.24104 24.4923C8.22296 25.1691 7.16903 25.6429 6.04358 25.8909C5.23987 26.094 4.43598 26.2293 3.63227 26.297C3.38223 26.3194 3.13219 26.3194 2.88197 26.3194L2.34622 26.3194C2.20319 26.3194 2.16752 26.2744 2.1496 26.094L2.02467 23.9059L1.68519 19.5976L1.31022 15.4921L1.09585 13.3043L0.863552 11.2065C0.738624 10.056 0.577846 8.90572 0.417068 7.7552C0.291957 6.83035 0.167029 5.9055 0.00625055 4.98088C-0.0116747 4.86793 0.00625055 4.77785 0.0955109 4.75521L2.57834 3.44694C2.73912 3.35662 2.88197 3.28894 3.04275 3.2439C3.14993 3.22127 3.20353 3.26654 3.1856 3.40189C3.1856 3.76269 3.1856 4.12371 3.16786 4.50714L3.14993 4.80026C3.13219 6.10853 3.13219 7.41681 3.14993 8.74773C3.16786 9.89824 3.22145 11.0712 3.27504 12.2215C3.3643 14.0261 3.50716 15.8305 3.65019 17.6126C3.65019 17.793 3.66794 17.793 3.82871 17.7705C4.13235 17.7029 4.41824 17.6802 4.72187 17.6802C5.66861 17.6802 6.61517 17.8156 7.52625 18.1087C8.32996 18.357 9.09818 18.6954 9.86622 19.1239C10.2414 19.3495 10.5807 19.62 10.9022 19.936C11.0273 20.0487 11.1166 20.1614 11.2059 20.2968L11.2059 20.2968L11.2059 20.2968ZM31.3368 20.0938C31.712 20.4772 31.8369 20.996 31.7297 21.6051C31.6404 22.1014 31.4617 22.5299 31.1938 22.9133C30.7652 23.5224 30.265 23.9962 29.7113 24.3796C28.6396 25.1241 27.4964 25.6429 26.2817 25.9136C25.6209 26.0713 24.9598 26.2067 24.299 26.2744C23.9238 26.3194 23.513 26.342 23.1022 26.3194L22.6198 26.3194C22.5128 26.342 22.4592 26.2744 22.4592 26.139C22.4234 25.5075 22.3877 24.8758 22.3341 24.2443L22.0482 20.3871L21.7446 17.0261L21.3696 13.2366C21.3161 12.5825 21.2445 11.9057 21.1553 11.2516L20.8337 8.72509C20.6909 7.52976 20.5122 6.3342 20.3157 5.13864L20.2978 4.98088C20.2621 4.86793 20.2978 4.77785 20.3871 4.75521C21.2625 4.30411 22.1198 3.80773 22.995 3.37926C23.2273 3.26654 23.513 3.13118 23.4953 3.40189C23.4237 4.23643 23.4417 5.07097 23.4237 5.8831C23.4058 6.55964 23.4058 7.23642 23.4417 7.89055L23.4417 8.40934C23.4417 9.22147 23.4594 10.0336 23.513 10.8229C23.5488 11.8831 23.6024 12.9659 23.6738 14.0261L23.8346 16.3043C23.8525 16.7327 23.8881 17.1388 23.9417 17.5675C23.9417 17.8156 23.9774 17.793 24.1382 17.7705C24.4597 17.7029 24.7813 17.6802 25.1029 17.6802C26.2281 17.7029 27.3177 17.9283 28.3894 18.3117C29.1218 18.56 29.8185 18.8982 30.4973 19.3495C30.8009 19.5523 31.0688 19.8006 31.3368 20.0938L31.3368 20.0938L31.3368 20.0938ZM5.50783 24.0639C5.7758 23.8608 6.24021 23.4548 6.88314 22.8233C7.52625 22.1691 7.91914 21.7404 8.07992 21.515C7.11543 20.9736 6.1151 20.4998 5.07909 20.0714L5.50783 24.0639L5.50783 24.0639ZM28.3181 21.6277C28.3716 21.56 28.3537 21.515 28.3001 21.4697L27.8714 21.2443C27.1213 20.8382 26.371 20.4772 25.6029 20.1614L25.4957 20.1164C25.4601 20.0938 25.4244 20.1164 25.3708 20.139L25.7994 24.0412C25.853 24.0412 25.8888 24.0186 25.9066 23.9962C26.6033 23.3645 27.2998 22.7103 27.9965 22.0111L28.3181 21.6277L28.3181 21.6277Z" fill="#49a1d2" fill-rule="nonzero" opacity="1" stroke="none" vectornator:layerName="path"/>
</g>
</g>
</svg>
